{
    "asset" : {
        "generator" : "Khronos glTF Blender I/O v1.8.19",
        "version" : "2.0"
    },
    "scene" : 0,
    "scenes" : [
        {
            "name" : "Scene",
            "nodes" : [
                0,
                1,
                2,
                3
            ]
        }
    ],
    "nodes" : [
        {
            "mesh" : 0,
            "name" : "room",
            "scale" : [
                0.009999999776482582,
                0.009999999776482582,
                0.009999999776482582
            ]
        },
        {
            "mesh" : 1,
            "name" : "box",
            "scale" : [
                0.009999999776482582,
                0.009999999776482582,
                0.009999999776482582
            ]
        },
        {
            "mesh" : 2,
            "name" : "frame",
            "scale" : [
                0.009999999776482582,
                0.009999999776482582,
                0.009999999776482582
            ],
            "translation" : [
                0,
                0.5992628931999207,
                0
            ]
        },
        {
            "mesh" : 3,
            "name" : "button",
            "scale" : [
                0.009999999776482582,
                0.009999999776482582,
                0.009999999776482582
            ],
            "translation" : [
                0,
                0.6117452383041382,
                0
            ]
        }
    ],
    "meshes" : [
        {
            "name" : "Mesh",
            "primitives" : [
                {
                    "attributes" : {
                        "POSITION" : 0,
                        "NORMAL" : 1,
                        "TEXCOORD_0" : 2
                    },
                    "indices" : 3
                }
            ]
        },
        {
            "name" : "Mesh.001",
            "primitives" : [
                {
                    "attributes" : {
                        "POSITION" : 4,
                        "NORMAL" : 5,
                        "TEXCOORD_0" : 6
                    },
                    "indices" : 7
                }
            ]
        },
        {
            "name" : "Mesh.002",
            "primitives" : [
                {
                    "attributes" : {
                        "POSITION" : 8,
                        "NORMAL" : 9,
                        "TEXCOORD_0" : 10
                    },
                    "indices" : 11
                }
            ]
        },
        {
            "name" : "Mesh.003",
            "primitives" : [
                {
                    "attributes" : {
                        "POSITION" : 12,
                        "NORMAL" : 13,
                        "TEXCOORD_0" : 14
                    },
                    "indices" : 15
                }
            ]
        }
    ],
    "accessors" : [
        {
            "bufferView" : 0,
            "componentType" : 5126,
            "count" : 168,
            "max" : [
                358.33795166015625,
                300,
                259.2369079589844
            ],
            "min" : [
                -357.2024841308594,
                0,
                -260.714111328125
            ],
            "type" : "VEC3"
        },
        {
            "bufferView" : 1,
            "componentType" : 5126,
            "count" : 168,
            "type" : "VEC3"
        },
        {
            "bufferView" : 2,
            "componentType" : 5126,
            "count" : 168,
            "type" : "VEC2"
        },
        {
            "bufferView" : 3,
            "componentType" : 5123,
            "count" : 414,
            "type" : "SCALAR"
        },
        {
            "bufferView" : 4,
            "componentType" : 5126,
            "count" : 20,
            "max" : [
                15,
                60,
                15
            ],
            "min" : [
                -15,
                0,
                -15
            ],
            "type" : "VEC3"
        },
        {
            "bufferView" : 5,
            "componentType" : 5126,
            "count" : 20,
            "type" : "VEC3"
        },
        {
            "bufferView" : 6,
            "componentType" : 5126,
            "count" : 20,
            "type" : "VEC2"
        },
        {
            "bufferView" : 7,
            "componentType" : 5123,
            "count" : 30,
            "type" : "SCALAR"
        },
        {
            "bufferView" : 8,
            "componentType" : 5126,
            "count" : 125,
            "max" : [
                13.113794326782227,
                3.0294573307037354,
                13.113794326782227
            ],
            "min" : [
                -13.113794326782227,
                -2.6484357817935233e-07,
                -13.113794326782227
            ],
            "type" : "VEC3"
        },
        {
            "bufferView" : 9,
            "componentType" : 5126,
            "count" : 125,
            "type" : "VEC3"
        },
        {
            "bufferView" : 10,
            "componentType" : 5126,
            "count" : 125,
            "type" : "VEC2"
        },
        {
            "bufferView" : 11,
            "componentType" : 5123,
            "count" : 576,
            "type" : "SCALAR"
        },
        {
            "bufferView" : 12,
            "componentType" : 5126,
            "count" : 174,
            "max" : [
                8.100000381469727,
                8.100000381469727,
                8.100000381469727
            ],
            "min" : [
                -8.100000381469727,
                6.115330393186014e-07,
                -8.100000381469727
            ],
            "type" : "VEC3"
        },
        {
            "bufferView" : 13,
            "componentType" : 5126,
            "count" : 174,
            "type" : "VEC3"
        },
        {
            "bufferView" : 14,
            "componentType" : 5126,
            "count" : 174,
            "type" : "VEC2"
        },
        {
            "bufferView" : 15,
            "componentType" : 5123,
            "count" : 792,
            "type" : "SCALAR"
        }
    ],
    "bufferViews" : [
        {
            "buffer" : 0,
            "byteLength" : 2016,
            "byteOffset" : 0
        },
        {
            "buffer" : 0,
            "byteLength" : 2016,
            "byteOffset" : 2016
        },
        {
            "buffer" : 0,
            "byteLength" : 1344,
            "byteOffset" : 4032
        },
        {
            "buffer" : 0,
            "byteLength" : 828,
            "byteOffset" : 5376
        },
        {
            "buffer" : 0,
            "byteLength" : 240,
            "byteOffset" : 6204
        },
        {
            "buffer" : 0,
            "byteLength" : 240,
            "byteOffset" : 6444
        },
        {
            "buffer" : 0,
            "byteLength" : 160,
            "byteOffset" : 6684
        },
        {
            "buffer" : 0,
            "byteLength" : 60,
            "byteOffset" : 6844
        },
        {
            "buffer" : 0,
            "byteLength" : 1500,
            "byteOffset" : 6904
        },
        {
            "buffer" : 0,
            "byteLength" : 1500,
            "byteOffset" : 8404
        },
        {
            "buffer" : 0,
            "byteLength" : 1000,
            "byteOffset" : 9904
        },
        {
            "buffer" : 0,
            "byteLength" : 1152,
            "byteOffset" : 10904
        },
        {
            "buffer" : 0,
            "byteLength" : 2088,
            "byteOffset" : 12056
        },
        {
            "buffer" : 0,
            "byteLength" : 2088,
            "byteOffset" : 14144
        },
        {
            "buffer" : 0,
            "byteLength" : 1392,
            "byteOffset" : 16232
        },
        {
            "buffer" : 0,
            "byteLength" : 1584,
            "byteOffset" : 17624
        }
    ],
    "buffers" : [
        {
            "byteLength" : 19208,
            "uri" : "data:application/octet-stream;base64,"
        }
    ]
}
