{"extensionsUsed" : ["KHR_materials_specular"], "accessors" : [{"bufferView" : 0, "byteOffset" : 0, "componentType" : 5123, "count" : 7488, "type" : "SCALAR", "max" : [1573], "min" : [0]}, {"bufferView" : 1, "byteOffset" : 0, "componentType" : 5126, "count" : 1574, "type" : "VEC3", "max" : [8.987863540649414, 15.232271194458008, 5.588277339935303], "min" : [-26.95122528076172, -14.964722633361816, -0.09323814511299133], "name" : "POSITION"}, {"bufferView" : 1, "byteOffset" : 12, "componentType" : 5126, "count" : 1574, "type" : "VEC3", "max" : [1.0000044107437134, 0.19709764420986176, 1.0000044107437134], "min" : [-0.9037927985191345, -1.0000044107437134, -0.8838884234428406], "name" : "NORMAL"}, {"bufferView" : 1, "byteOffset" : 24, "componentType" : 5126, "count" : 1574, "type" : "VEC2", "max" : [0.9895124435424805, 1.979017972946167], "min" : [0.014220534823834896, 1.0168910026550293], "name" : "TEXCOORD_0"}, {"bufferView" : 1, "byteOffset" : 32, "componentType" : 5126, "count" : 1574, "type" : "VEC2", "max" : [0.9829619526863098, 1.9750897884368896], "min" : [0.0237387977540493, 1.0155231952667236], "name" : "TEXCOORD_1"}], "asset" : {"generator" : "Aspose.3D 24.6.0", "version" : "2.0"}, "buffers" : [{"uri" : "data:application/octet-stream;base64,", "byteLength" : 77944}], "bufferViews" : [{"buffer" : 0, "byteOffset" : 0, "byteLength" : 14976, "target" : 34963}, {"buffer" : 0, "byteOffset" : 14980, "byteLength" : 62960, "byteStride" : 40, "target" : 34962}], "cameras" : [{"perspective" : {"aspectRatio" : 1.7777777777777777, "yfov" : 0.49583529054038333, "zfar" : 40, "znear" : 0.10000000149011612}, "type" : "perspective", "name" : ""}], "materials" : [{"name" : "04 - Default.001", "extensions" : {"KHR_materials_specular" : {"specularFactor" : 0}}, "pbrMetallicRoughness" : {"baseColorFactor" : [1, 1, 1, 1], "metallicFactor" : 1, "roughnessFactor" : 0.858578622341156}, "emissiveFactor" : [0, 0, 0], "alphaMode" : "OPAQUE", "doubleSided" : true}], "meshes" : [{"primitives" : [{"attributes" : {"POSITION" : 1, "NORMAL" : 2, "TEXCOORD_0" : 3, "TEXCOORD_1" : 4}, "indices" : 0, "material" : 0, "mode" : 4}]}], "nodes" : [{"camera" : 0, "matrix" : [0.009592617899715444, 0.000604532444767838, -0.0027597496936962894, 0, -0.0009089345434708199, 0.0099094051958604, -0.0009886784337786846, 0, 0.0026749792903368826, 0.0011992447527441013, 0.009560662908489092, 0, 0, 1.4999996423721313, 8.328714370727539, 1], "name" : "Camera-Projector"}, {"matrix" : [1, 0, 0, 0, 0, -1.3435885648505064E-07, -1.0000001343588565, 0, 0, 1.0000001343588565, -1.3435885648505064E-07, 0, -1.4816356897354126, 0, -9.389452934265137, 1], "mesh" : 0, "name" : "scene"}], "scene" : 0, "scenes" : [{"nodes" : [0, 1]}]}