{
  "asset": {
    "version": "2.0",
    "generator": "3dpea GLTFExporter"
  },
  "scenes": [
    {
      "name": "AuxScene",
      "nodes": [
        2
      ]
    }
  ],
  "scene": 0,
  "nodes": [
    {
      "matrix": [
        0.009592617899715444,
        0.000604532444767838,
        -0.0027597496936962894,
        0,
        -0.0009089345434708199,
        0.0099094051958604,
        -0.0009886784337786846,
        0,
        0.0026749792903368826,
        0.0011992447527441013,
        0.009560662908489092,
        0,
        0,
        1.4999996423721313,
        8.328714370727539,
        1
      ],
      "name": "Camera-Projector",
      "extras": {
        "name": "Camera-Projector"
      },
      "camera": 0
    },
    {
      "matrix": [
        1,
        0,
        0,
        0,
        0,
        -1.3435885648505064e-7,
        -1.0000001343588565,
        0,
        0,
        1.0000001343588565,
        -1.3435885648505064e-7,
        0,
        -1.4816356897354126,
        0,
        -9.389452934265137,
        1
      ],
      "name": "scene",
      "extras": {
        "name": "scene"
      },
      "mesh": 0
    },
    {
      "name": "scene",
      "children": [
        0,
        1
      ]
    }
  ],
  "cameras": [
    {
      "type": "perspective",
      "perspective": {
        "aspectRatio": 1.7777777777777777,
        "yfov": 0.49583529054038333,
        "zfar": 40,
        "znear": 0.10000000149011612
      },
      "name": "PerspectiveCamera"
    }
  ],
  "bufferViews": [
    {
      "buffer": 0,
      "byteOffset": 0,
      "byteLength": 18888,
      "target": 34962,
      "byteStride": 12
    },
    {
      "buffer": 0,
      "byteOffset": 18888,
      "byteLength": 18888,
      "target": 34962,
      "byteStride": 12
    },
    {
      "buffer": 0,
      "byteOffset": 37776,
      "byteLength": 12592,
      "target": 34962,
      "byteStride": 8
    },
    {
      "buffer": 0,
      "byteOffset": 50368,
      "byteLength": 12592,
      "target": 34962,
      "byteStride": 8
    },
    {
      "buffer": 0,
      "byteOffset": 62960,
      "byteLength": 14976,
      "target": 34963
    }
  ],
  "buffers": [
    {
      "byteLength": 77936,
      "uri": "data:application/octet-stream;base64,"
    }
  ],
  "accessors": [
    {
      "bufferView": 0,
      "componentType": 5126,
      "count": 1574,
      "max": [
        8.987863540649414,
        15.232271194458008,
        5.588277339935303
      ],
      "min": [
        -26.95122528076172,
        -14.964722633361816,
        -0.09323814511299133
      ],
      "type": "VEC3"
    },
    {
      "bufferView": 1,
      "componentType": 5126,
      "count": 1574,
      "max": [
        1,
        0.1970967799425125,
        1
      ],
      "min": [
        -0.9037888050079346,
        -1,
        -0.883884608745575
      ],
      "type": "VEC3"
    },
    {
      "bufferView": 2,
      "componentType": 5126,
      "count": 1574,
      "max": [
        0.9895124435424805,
        0.979017972946167
      ],
      "min": [
        0.014220534823834896,
        0.016891002655029297
      ],
      "type": "VEC2"
    },
    {
      "bufferView": 3,
      "componentType": 5126,
      "count": 1574,
      "max": [
        0.9829619526863098,
        0.9750898480415344
      ],
      "min": [
        0.0237387977540493,
        0.015523195266723633
      ],
      "type": "VEC2"
    },
    {
      "bufferView": 4,
      "componentType": 5123,
      "count": 7488,
      "max": [
        1573
      ],
      "min": [
        0
      ],
      "type": "SCALAR"
    }
  ],
  "materials": [
    {
      "pbrMetallicRoughness": {
        "metallicFactor": 1,
        "roughnessFactor": 0.858578622341156
      },
      "alphaMode": "MASK",
      "alphaCutoff": 0.1,
      "doubleSided": true,
      "name": "04 - Default.001"
    }
  ],
  "meshes": [
    {
      "primitives": [
        {
          "mode": 4,
          "attributes": {
            "POSITION": 0,
            "NORMAL": 1,
            "TEXCOORD_0": 2,
            "TEXCOORD_1": 3
          },
          "indices": 4,
          "material": 0
        }
      ]
    }
  ]
}