{
	"asset":{
		"generator":"Khronos glTF Blender I/O v4.1.63",
		"version":"2.0"
	},
	"extensionsUsed":[
		"KHR_materials_specular"
	],
	"scene":0,
	"scenes":[
		{
			"name":"Scene",
			"nodes":[
				0,
				1
			]
		}
	],
	"nodes":[
		{
			"camera":0,
			"name":"Camera-Projector",
			"rotation":[
				-0.05535043776035309,
				0.13748864829540253,
				0.0382879339158535,
				0.9882141947746277
			],
			"scale":[
				0.009999999776482582,
				0.009999997913837433,
				0.009999998845160007
			],
			"translation":[
				0,
				1.4999996423721313,
				8.328714370727539
			]
		},
		{
			"mesh":0,
			"name":"scene",
			"rotation":[
				-0.7071068286895752,
				0,
				0,
				0.7071068286895752
			],
			"translation":[
				-1.4816356897354126,
				0,
				-9.389452934265137
			]
		}
	],
	"cameras":[
		{
			"name":"Camera.001",
			"perspective":{
				"aspectRatio":1.7777777777777777,
				"yfov":0.49583529054038333,
				"zfar":40,
				"znear":0.10000000149011612
			},
			"type":"perspective"
		}
	],
	"materials":[
		{
			"alphaMode":"BLEND",
			"doubleSided":true,
			"extensions":{
				"KHR_materials_specular":{
					"specularFactor":0
				}
			},
			"name":"04 - Default",
			"pbrMetallicRoughness":{
				"baseColorTexture":{
					"index":0
				},
				"roughnessFactor":0.858578622341156
			}
		}
	],
	"meshes":[
		{
			"name":"Mesh",
			"primitives":[
				{
					"attributes":{
						"POSITION":0,
						"NORMAL":1,
						"TEXCOORD_0":2,
						"TEXCOORD_1":3
					},
					"indices":4,
					"material":0
				}
			]
		}
	],
	"textures":[
		{
			"sampler":0,
			"source":0
		}
	],
	"images":[
		{
			"mimeType":"image/png",
			"name":"map",
			"uri":"map.png"
		}
	],
	"accessors":[
		{
			"bufferView":0,
			"componentType":5126,
			"count":1574,
			"max":[
				8.987863540649414,
				15.232271194458008,
				5.588277339935303
			],
			"min":[
				-26.95122528076172,
				-14.964722633361816,
				-0.09323814511299133
			],
			"type":"VEC3"
		},
		{
			"bufferView":1,
			"componentType":5126,
			"count":1574,
			"type":"VEC3"
		},
		{
			"bufferView":2,
			"componentType":5126,
			"count":1574,
			"type":"VEC2"
		},
		{
			"bufferView":3,
			"componentType":5126,
			"count":1574,
			"type":"VEC2"
		},
		{
			"bufferView":4,
			"componentType":5123,
			"count":7488,
			"type":"SCALAR"
		}
	],
	"bufferViews":[
		{
			"buffer":0,
			"byteLength":18888,
			"byteOffset":0,
			"target":34962
		},
		{
			"buffer":0,
			"byteLength":18888,
			"byteOffset":18888,
			"target":34962
		},
		{
			"buffer":0,
			"byteLength":12592,
			"byteOffset":37776,
			"target":34962
		},
		{
			"buffer":0,
			"byteLength":12592,
			"byteOffset":50368,
			"target":34962
		},
		{
			"buffer":0,
			"byteLength":14976,
			"byteOffset":62960,
			"target":34963
		}
	],
	"samplers":[
		{
			"magFilter":9729,
			"minFilter":9987
		}
	],
	"buffers":[
		{
			"byteLength":77936,
			"uri":"scene.bin"
		}
	]
}
