{
    "asset" : {
        "generator" : "Khronos glTF Blender I/O v1.8.19",
        "version" : "2.0"
    },
    "scene" : 0,
    "scenes" : [
        {
            "name" : "Scene",
            "nodes" : [
                0
            ]
        }
    ],
    "nodes" : [
        {
            "mesh" : 0,
            "name" : "Sphere001",
            "rotation" : [
                0,
                0.9238796234130859,
                0,
                0.38268348574638367
            ],
            "scale" : [
                0.02760849893093109,
                0.02760849893093109,
                0.02760849893093109
            ],
            "translation" : [
                0.05356712266802788,
                0,
                0.015675734728574753
            ]
        }
    ],
    "meshes" : [
        {
            "name" : "Mesh",
            "primitives" : [
                {
                    "attributes" : {
                        "POSITION" : 0,
                        "NORMAL" : 1,
                        "TEXCOORD_0" : 2
                    },
                    "indices" : 3
                }
            ]
        }
    ],
    "accessors" : [
        {
            "bufferView" : 0,
            "componentType" : 5126,
            "count" : 242,
            "max" : [
                694.245361328125,
                694.245361328125,
                694.245361328125
            ],
            "min" : [
                -694.245361328125,
                5.2414066885830835e-05,
                -694.245361328125
            ],
            "type" : "VEC3"
        },
        {
            "bufferView" : 1,
            "componentType" : 5126,
            "count" : 242,
            "type" : "VEC3"
        },
        {
            "bufferView" : 2,
            "componentType" : 5126,
            "count" : 242,
            "type" : "VEC2"
        },
        {
            "bufferView" : 3,
            "componentType" : 5123,
            "count" : 1170,
            "type" : "SCALAR"
        }
    ],
    "bufferViews" : [
        {
            "buffer" : 0,
            "byteLength" : 2904,
            "byteOffset" : 0
        },
        {
            "buffer" : 0,
            "byteLength" : 2904,
            "byteOffset" : 2904
        },
        {
            "buffer" : 0,
            "byteLength" : 1936,
            "byteOffset" : 5808
        },
        {
            "buffer" : 0,
            "byteLength" : 2340,
            "byteOffset" : 7744
        }
    ],
    "buffers" : [
        {
            "byteLength" : 10084,
            "uri" : "data:application/octet-stream;base64,"
        }
    ]
}
